<?xml version="1.0" encoding="UTF-8" standalone="no"?>
<!-- Provided logo -->

<svg
   version="1.1"
   id="Layer_1"
   x="0px"
   y="0px"
   viewBox="0 0 512 512"
   style="enable-background:new 0 0 512 512;"
   xml:space="preserve"
   sodipodi:docname="logo.svg"
   inkscape:version="1.4 (86a8ad7, 2024-10-11)"
   xmlns:inkscape="http://www.inkscape.org/namespaces/inkscape"
   xmlns:sodipodi="http://sodipodi.sourceforge.net/DTD/sodipodi-0.dtd"
   xmlns="http://www.w3.org/2000/svg"
   xmlns:svg="http://www.w3.org/2000/svg"><defs
     id="defs1" /><sodipodi:namedview
     id="namedview1"
     pagecolor="#ffffff"
     bordercolor="#999999"
     borderopacity="1"
     inkscape:showpageshadow="2"
     inkscape:pageopacity="0"
     inkscape:pagecheckerboard="0"
     inkscape:deskcolor="#d1d1d1"
     inkscape:zoom="1.0322266"
     inkscape:cx="102.69063"
     inkscape:cy="319.21286"
     inkscape:window-width="2160"
     inkscape:window-height="1334"
     inkscape:window-x="-11"
     inkscape:window-y="-11"
     inkscape:window-maximized="1"
     inkscape:current-layer="Layer_1" /><style
     type="text/css"
     id="style1">
	.st0{fill:#2E9FFF;}
</style><g
     id="g3"><path
       id="XMLID_6_"
       class="st0"
       d="m 266.68366,503.1064 c -60.88,0 -116.43,-22.16 -159.49,-59.06 l -105.909998,14.45 40.96,-101 c -14.31,-31.42 -22.3,-66.35 -22.3,-103.1 0,-137.33001 110.399998,-248.570005 246.739998,-248.570005 136.2,0 246.6,111.379995 246.6,248.570005 0,137.47 -110.4,248.71 -246.6,248.71 z"
       style="display:inline;fill:#2ad4ff" /><path
       id="XMLID_5_-2"
       class="st0"
       d="m 276.86636,432.53295 c -93.72017,3.30152 -137.48203,-45.50124 -138.80591,-83.08224 -0.68033,-19.31246 11.93368,-33.34458 29.97529,-33.98014 40.07454,-1.41172 31.90928,61.76284 106.78963,59.125 38.31833,-1.34986 58.75628,-24.71609 57.93498,-48.03023 -0.49033,-13.91889 -7.42226,-29.17868 -32.88754,-35.07548 L 215.73372,271.8076 C 147.87346,255.90693 134.34196,216.66555 133.03033,179.43252 130.30901,102.18269 196.02929,70.95 258.61587,68.745233 c 57.63714,-2.030411 127.03757,30.365196 128.66791,76.645487 0.69872,19.83442 -14.70306,31.87432 -32.74457,32.50988 -34.1672,1.20362 -29.76081,-50.68961 -98.73372,-48.25986 -34.16721,1.20362 -52.5722,18.74958 -51.72026,42.93364 0.85195,24.18407 28.10419,30.88894 51.77639,35.80369 l 62.31538,12.78616 c 68.11214,13.97558 86.87536,56.5167 88.2973,96.88148 2.05903,62.9886 -40.51791,111.34882 -129.60794,114.48724 z"
       style="fill:#f9f9f9;stroke-width:1" /></g><path
     style="fill:#40a2e1;stroke-width:1.00157;fill-opacity:1"
     d="m 240.74172,501.33529 c -21.0485,-2.60005 -41.07559,-7.35665 -59.23113,-14.06788 -21.83551,-8.07154 -49.0353,-23.48636 -67.0554,-38.002 -4.82063,-3.88315 -7.79863,-5.63015 -9.2034,-5.39907 C 97.238304,445.18456 2.626911,457.77873 2.4496748,457.55082 2.326984,457.39304 11.335052,434.87787 22.467603,407.51711 L 42.708606,357.77026 38.427937,346.96839 C 30.60178,327.21979 25.645734,308.67292 22.597752,287.72753 20.044509,270.18193 20.280946,235.97047 23.079811,217.9754 31.513229,163.75346 55.378849,116.41177 93.426953,78.429379 113.23862,58.651933 134.13502,43.737982 159.20458,31.483306 183.32332,19.693417 205.64475,12.767043 233.18021,8.5285535 c 15.18528,-2.3374455 51.95307,-2.2951275 67.62584,0.077834 30.05115,4.5499435 60.34144,14.8151605 85.16219,28.8610115 20.76165,11.748838 36.09028,23.558156 54.38302,41.897164 20.5893,20.641387 33.93163,39.370927 46.98236,65.952367 11.3125,23.04104 17.84259,43.37272 22.43307,69.84623 2.95445,17.03849 3.20155,58.65056 0.45101,75.9551 -12.78428,80.43028 -61.60061,148.46189 -132.39367,184.50703 -24.53296,12.49126 -45.97903,19.49281 -74.59603,24.35353 -10.64397,1.80792 -51.62895,2.69764 -62.48628,1.35647 z m 57.7537,-70.27834 c 56.23721,-6.94354 93.04165,-35.13837 105.22324,-80.60851 2.29235,-8.55665 2.53334,-11.15699 2.58056,-27.84485 0.0449,-15.85523 -0.24262,-19.57615 -2.07383,-26.84236 -7.525,-29.85874 -22.73202,-49.22984 -49.02791,-62.45302 -13.96718,-7.02355 -26.03834,-10.39344 -68.52653,-19.13045 -22.16069,-4.55699 -44.15998,-9.40628 -48.8873,-10.7762 -23.87566,-6.9189 -34.72245,-18.83634 -32.95724,-36.21032 1.64841,-16.2244 12.80238,-28.29185 31.5558,-34.14013 6.41815,-2.00151 9.18731,-2.26587 23.7351,-2.26587 18.94246,0 24.12874,1.02426 37.29802,7.36615 7.48828,3.60611 9.50778,5.25778 22.28193,18.22349 7.72601,7.84189 15.59777,15.41554 17.4928,16.83032 10.58825,7.90499 29.63898,6.14928 40.58562,-3.74034 11.14671,-10.07039 12.88225,-27.83187 4.37237,-44.74668 C 363.61128,87.87325 301.89638,63.065423 244.33647,69.321421 190.32596,75.191645 151.23,101.31691 137.88723,140.45446 c -6.88544,20.19662 -6.80244,50.93732 0.19424,71.95195 6.89691,20.71496 21.71391,36.95846 43.89396,48.11983 11.89138,5.98395 24.83901,9.69312 72.8136,20.85924 49.48928,11.51867 57.05001,13.75678 64.23223,19.01387 17.8611,13.0736 17.51086,40.31291 -0.73786,57.38368 -11.88038,11.11352 -26.11168,15.89315 -47.50951,15.95625 -16.48772,0.0486 -25.03911,-1.62246 -35.84485,-7.00463 -11.38394,-5.67016 -17.67413,-11.25617 -29.9123,-26.56367 -17.55508,-21.9579 -21.08734,-24.34924 -35.96471,-24.3481 -8.65536,6.7e-4 -10.21675,0.2797 -14.65119,2.6183 -14.16431,7.46982 -19.81694,23.6752 -14.92712,42.79421 6.8825,26.9103 31.59766,50.20715 65.85101,62.07206 26.73863,9.26191 59.11255,11.95461 93.17069,7.7495 z"
     id="path1" /></svg>
